%TF.GenerationSoftware,KiCad,Pcbnew,10.0.5*%
%TF.CreationDate,2026-08-04T11:50:23-06:00*%
%TF.ProjectId,Drone_Pet_Carrier,44726f6e-655f-4506-9574-5f4361727269,rev?*%
%TF.SameCoordinates,Original*%
%TF.FileFunction,Copper,L1,Top*%
%TF.FilePolarity,Positive*%
%FSLAX46Y46*%
G04 Gerber Fmt 4.6, Leading zero omitted, Abs format (unit mm)*
G04 Created by KiCad (PCBNEW 10.0.5) date 2026-08-04 11:50:23*
%MOMM*%
%LPD*%
G01*
G04 APERTURE LIST*
%TA.AperFunction,ComponentPad*%
%ADD10C,2.000000*%
%TD*%
%TA.AperFunction,ComponentPad*%
%ADD11R,1.700000X1.700000*%
%TD*%
%TA.AperFunction,ComponentPad*%
%ADD12C,1.700000*%
%TD*%
%TA.AperFunction,Conductor*%
%ADD13C,0.200000*%
%TD*%
G04 APERTURE END LIST*
D10*
%TO.P,J3,3,GND_3*%
%TO.N,Net-(J4-Pin_1)*%
X110490000Y-50800000D03*
%TO.P,J3,4,VBAT_4*%
%TO.N,Net-(J3-VBAT)*%
X113030000Y-50800000D03*
%TD*%
D11*
%TO.P,J5,1,VDC_1*%
%TO.N,/+3V3*%
X119380000Y-78740000D03*
D12*
%TO.P,J5,2,3V3_2*%
%TO.N,unconnected-(J5-3V3-Pad2)*%
X116840000Y-78740000D03*
%TO.P,J5,3,GND_3*%
%TO.N,/GND*%
X114300000Y-78740000D03*
%TO.P,J5,4,SCL_4*%
%TO.N,Net-(J2-10)*%
X111760000Y-78740000D03*
%TO.P,J5,5,SDA_5*%
%TO.N,Net-(J2-9)*%
X109220000Y-78740000D03*
%TO.P,J5,6,DO_6*%
%TO.N,Net-(J5-DO)*%
X106680000Y-78740000D03*
%TO.P,J5,7,CS_7*%
%TO.N,Net-(J2-7)*%
X104140000Y-78740000D03*
%TO.P,J5,8,11_8*%
%TO.N,unconnected-(J5-11-Pad8)*%
X101600000Y-78740000D03*
%TO.P,J5,9,12_9*%
%TO.N,unconnected-(J5-12-Pad9)*%
X99060000Y-78740000D03*
%TD*%
D11*
%TO.P,J2,1,TX_1*%
%TO.N,unconnected-(J2-TX-Pad1)*%
X116840000Y-50800000D03*
D12*
%TO.P,J2,2,RX_2*%
%TO.N,unconnected-(J2-RX-Pad2)*%
X116840000Y-53340000D03*
%TO.P,J2,3,13_3*%
%TO.N,Net-(J2-13)*%
X116840000Y-55880000D03*
%TO.P,J2,4,12_4*%
%TO.N,Net-(J2-12)*%
X116840000Y-58420000D03*
%TO.P,J2,5,11_5*%
%TO.N,Net-(J2-11)*%
X116840000Y-60960000D03*
%TO.P,J2,6,10_6*%
%TO.N,Net-(J2-10)*%
X116840000Y-63500000D03*
%TO.P,J2,7,9_7*%
%TO.N,Net-(J2-9)*%
X116840000Y-66040000D03*
%TO.P,J2,8,8_8*%
%TO.N,Net-(J5-DO)*%
X116840000Y-68580000D03*
%TO.P,J2,9,7_9*%
%TO.N,Net-(J2-7)*%
X116840000Y-71120000D03*
%TD*%
D11*
%TO.P,J8,1,Pin_1_1*%
%TO.N,Net-(J1-1)*%
X105410000Y-45720000D03*
D12*
%TO.P,J8,2,Pin_2_2*%
%TO.N,Net-(J1-2)*%
X107950000Y-45720000D03*
%TO.P,J8,3,Pin_3_3*%
%TO.N,Net-(J1-4)*%
X110490000Y-45720000D03*
%TO.P,J8,4,Pin_4_4*%
%TO.N,Net-(J1-5)*%
X113030000Y-45720000D03*
%TD*%
D11*
%TO.P,J1,1,5V_1*%
%TO.N,Net-(J1-5V)*%
X101600000Y-50800000D03*
D12*
%TO.P,J1,2,GND_2*%
%TO.N,/GND*%
X101600000Y-53340000D03*
%TO.P,J1,3,3V3_3*%
%TO.N,/+3V3*%
X101600000Y-55880000D03*
%TO.P,J1,4,1_4*%
%TO.N,Net-(J1-1)*%
X101600000Y-58420000D03*
%TO.P,J1,5,2_5*%
%TO.N,Net-(J1-2)*%
X101600000Y-60960000D03*
%TO.P,J1,6,3_6*%
%TO.N,unconnected-(J1-3-Pad6)*%
X101600000Y-63500000D03*
%TO.P,J1,7,4_7*%
%TO.N,Net-(J1-4)*%
X101600000Y-66040000D03*
%TO.P,J1,8,5_8*%
%TO.N,Net-(J1-5)*%
X101600000Y-68580000D03*
%TO.P,J1,9,6_9*%
%TO.N,unconnected-(J1-6-Pad9)*%
X101600000Y-71120000D03*
%TD*%
D11*
%TO.P,J6,1,GND_1*%
%TO.N,unconnected-(J6-GND-Pad1)*%
X114300000Y-91440000D03*
D12*
%TO.P,J6,2,DO_2*%
%TO.N,unconnected-(J6-DO-Pad2)*%
X111760000Y-91440000D03*
%TO.P,J6,3,CS_3*%
%TO.N,unconnected-(J6-CS-Pad3)*%
X109220000Y-91440000D03*
%TO.P,J6,4,SDX_4*%
%TO.N,unconnected-(J6-SDX-Pad4)*%
X106680000Y-91440000D03*
%TO.P,J6,5,SCX_5*%
%TO.N,unconnected-(J6-SCX-Pad5)*%
X104140000Y-91440000D03*
%TD*%
D11*
%TO.P,J7,1,XSHUT_1*%
%TO.N,Net-(J2-13)*%
X114300000Y-86360000D03*
D12*
%TO.P,J7,2,SDA_2*%
%TO.N,Net-(J2-12)*%
X111760000Y-86360000D03*
%TO.P,J7,3,SCL_3*%
%TO.N,Net-(J2-11)*%
X109220000Y-86360000D03*
%TO.P,J7,4,GND_4*%
%TO.N,/GND*%
X106680000Y-86360000D03*
%TO.P,J7,5,VIN_5*%
%TO.N,/+3V3*%
X104140000Y-86360000D03*
%TD*%
%TO.N,Net-(J1-5)*%
D13*
X113030000Y-45720000D02*
X106610000Y-52140000D01*
X106610000Y-52140000D02*
X106610000Y-63570000D01*
X106610000Y-63570000D02*
X101600000Y-68580000D01*
%TO.N,Net-(J1-4)*%
X110490000Y-45720000D02*
X106210000Y-50000000D01*
X106210000Y-50000000D02*
X106210000Y-61430000D01*
X106210000Y-61430000D02*
X101600000Y-66040000D01*
%TO.N,Net-(J1-2)*%
X107950000Y-45720000D02*
X105810000Y-47860000D01*
X105810000Y-47860000D02*
X105810000Y-56750000D01*
X105810000Y-56750000D02*
X101600000Y-60960000D01*
%TO.N,/+3V3*%
X102990000Y-80130000D02*
X104140000Y-81280000D01*
X104140000Y-81280000D02*
X116840000Y-81280000D01*
X116840000Y-81280000D02*
X119380000Y-78740000D01*
X99060000Y-74355000D02*
X102990000Y-78285000D01*
X104140000Y-81280000D02*
X104140000Y-86360000D01*
X101600000Y-55880000D02*
X99060000Y-58420000D01*
X102990000Y-78285000D02*
X102990000Y-80130000D01*
X99060000Y-58420000D02*
X99060000Y-74355000D01*
%TO.N,Net-(J1-1)*%
X105410000Y-45720000D02*
X105410000Y-54610000D01*
X105410000Y-54610000D02*
X101600000Y-58420000D01*
%TO.N,Net-(J2-10)*%
X120180000Y-66840000D02*
X116840000Y-63500000D01*
X111760000Y-78740000D02*
X114300000Y-76200000D01*
X114300000Y-76200000D02*
X117971372Y-76200000D01*
X120180000Y-73991370D02*
X120180000Y-66840000D01*
X117971372Y-76200000D02*
X120180000Y-73991370D01*
%TO.N,Net-(J2-9)*%
X119780000Y-73825685D02*
X119780000Y-68980000D01*
X117805686Y-75800000D02*
X119780000Y-73825685D01*
X119780000Y-68980000D02*
X116840000Y-66040000D01*
X112160000Y-75800000D02*
X117805686Y-75800000D01*
X109220000Y-78740000D02*
X112160000Y-75800000D01*
%TO.N,Net-(J2-7)*%
X118980000Y-73494314D02*
X118980000Y-73260000D01*
X107880000Y-75000000D02*
X117474314Y-75000000D01*
X104140000Y-78740000D02*
X107880000Y-75000000D01*
X118980000Y-73260000D02*
X116840000Y-71120000D01*
X117474314Y-75000000D02*
X118980000Y-73494314D01*
%TO.N,Net-(J2-12)*%
X114700000Y-83420000D02*
X120345686Y-83420000D01*
X111760000Y-86360000D02*
X114700000Y-83420000D01*
X122320000Y-63900000D02*
X116840000Y-58420000D01*
X122320000Y-81445685D02*
X122320000Y-63900000D01*
X120345686Y-83420000D02*
X122320000Y-81445685D01*
X116840000Y-58420000D02*
X117005686Y-58585686D01*
%TO.N,Net-(J2-13)*%
X122720000Y-61760000D02*
X116840000Y-55880000D01*
X122720000Y-81611370D02*
X122720000Y-61760000D01*
X120511372Y-83820000D02*
X122720000Y-81611370D01*
X114300000Y-86360000D02*
X116840000Y-83820000D01*
X116840000Y-83820000D02*
X120511372Y-83820000D01*
%TO.N,Net-(J2-11)*%
X121920000Y-66040000D02*
X116840000Y-60960000D01*
X121920000Y-81280000D02*
X121920000Y-66040000D01*
X112560000Y-83020000D02*
X120180000Y-83020000D01*
X109220000Y-86360000D02*
X112560000Y-83020000D01*
X120180000Y-83020000D02*
X121920000Y-81280000D01*
%TO.N,Net-(J5-DO)*%
X119380000Y-73660000D02*
X119380000Y-71120000D01*
X106680000Y-78740000D02*
X110020000Y-75400000D01*
X110020000Y-75400000D02*
X117640000Y-75400000D01*
X117640000Y-75400000D02*
X119380000Y-73660000D01*
X119380000Y-71120000D02*
X116840000Y-68580000D01*
%TD*%
M02*
