%TF.GenerationSoftware,KiCad,Pcbnew,10.0.5*%
%TF.CreationDate,2026-08-04T11:50:23-06:00*%
%TF.ProjectId,Drone_Pet_Carrier,44726f6e-655f-4506-9574-5f4361727269,rev?*%
%TF.SameCoordinates,Original*%
%TF.FileFunction,Legend,Top*%
%TF.FilePolarity,Positive*%
%FSLAX46Y46*%
G04 Gerber Fmt 4.6, Leading zero omitted, Abs format (unit mm)*
G04 Created by KiCad (PCBNEW 10.0.5) date 2026-08-04 11:50:23*
%MOMM*%
%LPD*%
G01*
G04 APERTURE LIST*
%ADD10C,0.150000*%
%ADD11C,0.120000*%
G04 APERTURE END LIST*
D10*
X121604819Y-79073333D02*
X122319104Y-79073333D01*
X122319104Y-79073333D02*
X122461961Y-79120952D01*
X122461961Y-79120952D02*
X122557200Y-79216190D01*
X122557200Y-79216190D02*
X122604819Y-79359047D01*
X122604819Y-79359047D02*
X122604819Y-79454285D01*
X121604819Y-78120952D02*
X121604819Y-78597142D01*
X121604819Y-78597142D02*
X122081009Y-78644761D01*
X122081009Y-78644761D02*
X122033390Y-78597142D01*
X122033390Y-78597142D02*
X121985771Y-78501904D01*
X121985771Y-78501904D02*
X121985771Y-78263809D01*
X121985771Y-78263809D02*
X122033390Y-78168571D01*
X122033390Y-78168571D02*
X122081009Y-78120952D01*
X122081009Y-78120952D02*
X122176247Y-78073333D01*
X122176247Y-78073333D02*
X122414342Y-78073333D01*
X122414342Y-78073333D02*
X122509580Y-78120952D01*
X122509580Y-78120952D02*
X122557200Y-78168571D01*
X122557200Y-78168571D02*
X122604819Y-78263809D01*
X122604819Y-78263809D02*
X122604819Y-78501904D01*
X122604819Y-78501904D02*
X122557200Y-78597142D01*
X122557200Y-78597142D02*
X122509580Y-78644761D01*
X116506666Y-47484819D02*
X116506666Y-48199104D01*
X116506666Y-48199104D02*
X116459047Y-48341961D01*
X116459047Y-48341961D02*
X116363809Y-48437200D01*
X116363809Y-48437200D02*
X116220952Y-48484819D01*
X116220952Y-48484819D02*
X116125714Y-48484819D01*
X116935238Y-47580057D02*
X116982857Y-47532438D01*
X116982857Y-47532438D02*
X117078095Y-47484819D01*
X117078095Y-47484819D02*
X117316190Y-47484819D01*
X117316190Y-47484819D02*
X117411428Y-47532438D01*
X117411428Y-47532438D02*
X117459047Y-47580057D01*
X117459047Y-47580057D02*
X117506666Y-47675295D01*
X117506666Y-47675295D02*
X117506666Y-47770533D01*
X117506666Y-47770533D02*
X117459047Y-47913390D01*
X117459047Y-47913390D02*
X116887619Y-48484819D01*
X116887619Y-48484819D02*
X117506666Y-48484819D01*
X102094819Y-46053333D02*
X102809104Y-46053333D01*
X102809104Y-46053333D02*
X102951961Y-46100952D01*
X102951961Y-46100952D02*
X103047200Y-46196190D01*
X103047200Y-46196190D02*
X103094819Y-46339047D01*
X103094819Y-46339047D02*
X103094819Y-46434285D01*
X102523390Y-45434285D02*
X102475771Y-45529523D01*
X102475771Y-45529523D02*
X102428152Y-45577142D01*
X102428152Y-45577142D02*
X102332914Y-45624761D01*
X102332914Y-45624761D02*
X102285295Y-45624761D01*
X102285295Y-45624761D02*
X102190057Y-45577142D01*
X102190057Y-45577142D02*
X102142438Y-45529523D01*
X102142438Y-45529523D02*
X102094819Y-45434285D01*
X102094819Y-45434285D02*
X102094819Y-45243809D01*
X102094819Y-45243809D02*
X102142438Y-45148571D01*
X102142438Y-45148571D02*
X102190057Y-45100952D01*
X102190057Y-45100952D02*
X102285295Y-45053333D01*
X102285295Y-45053333D02*
X102332914Y-45053333D01*
X102332914Y-45053333D02*
X102428152Y-45100952D01*
X102428152Y-45100952D02*
X102475771Y-45148571D01*
X102475771Y-45148571D02*
X102523390Y-45243809D01*
X102523390Y-45243809D02*
X102523390Y-45434285D01*
X102523390Y-45434285D02*
X102571009Y-45529523D01*
X102571009Y-45529523D02*
X102618628Y-45577142D01*
X102618628Y-45577142D02*
X102713866Y-45624761D01*
X102713866Y-45624761D02*
X102904342Y-45624761D01*
X102904342Y-45624761D02*
X102999580Y-45577142D01*
X102999580Y-45577142D02*
X103047200Y-45529523D01*
X103047200Y-45529523D02*
X103094819Y-45434285D01*
X103094819Y-45434285D02*
X103094819Y-45243809D01*
X103094819Y-45243809D02*
X103047200Y-45148571D01*
X103047200Y-45148571D02*
X102999580Y-45100952D01*
X102999580Y-45100952D02*
X102904342Y-45053333D01*
X102904342Y-45053333D02*
X102713866Y-45053333D01*
X102713866Y-45053333D02*
X102618628Y-45100952D01*
X102618628Y-45100952D02*
X102571009Y-45148571D01*
X102571009Y-45148571D02*
X102523390Y-45243809D01*
X121158095Y-51254819D02*
X121158095Y-50254819D01*
X121158095Y-50731009D02*
X121729523Y-50731009D01*
X121729523Y-51254819D02*
X121729523Y-50254819D01*
X122158095Y-50350057D02*
X122205714Y-50302438D01*
X122205714Y-50302438D02*
X122300952Y-50254819D01*
X122300952Y-50254819D02*
X122539047Y-50254819D01*
X122539047Y-50254819D02*
X122634285Y-50302438D01*
X122634285Y-50302438D02*
X122681904Y-50350057D01*
X122681904Y-50350057D02*
X122729523Y-50445295D01*
X122729523Y-50445295D02*
X122729523Y-50540533D01*
X122729523Y-50540533D02*
X122681904Y-50683390D01*
X122681904Y-50683390D02*
X122110476Y-51254819D01*
X122110476Y-51254819D02*
X122729523Y-51254819D01*
X121158095Y-87744819D02*
X121158095Y-86744819D01*
X121158095Y-87221009D02*
X121729523Y-87221009D01*
X121729523Y-87744819D02*
X121729523Y-86744819D01*
X122634285Y-87078152D02*
X122634285Y-87744819D01*
X122396190Y-86697200D02*
X122158095Y-87411485D01*
X122158095Y-87411485D02*
X122777142Y-87411485D01*
X95758095Y-87744819D02*
X95758095Y-86744819D01*
X95758095Y-87221009D02*
X96329523Y-87221009D01*
X96329523Y-87744819D02*
X96329523Y-86744819D01*
X96710476Y-86744819D02*
X97329523Y-86744819D01*
X97329523Y-86744819D02*
X96996190Y-87125771D01*
X96996190Y-87125771D02*
X97139047Y-87125771D01*
X97139047Y-87125771D02*
X97234285Y-87173390D01*
X97234285Y-87173390D02*
X97281904Y-87221009D01*
X97281904Y-87221009D02*
X97329523Y-87316247D01*
X97329523Y-87316247D02*
X97329523Y-87554342D01*
X97329523Y-87554342D02*
X97281904Y-87649580D01*
X97281904Y-87649580D02*
X97234285Y-87697200D01*
X97234285Y-87697200D02*
X97139047Y-87744819D01*
X97139047Y-87744819D02*
X96853333Y-87744819D01*
X96853333Y-87744819D02*
X96758095Y-87697200D01*
X96758095Y-87697200D02*
X96710476Y-87649580D01*
X101266666Y-47484819D02*
X101266666Y-48199104D01*
X101266666Y-48199104D02*
X101219047Y-48341961D01*
X101219047Y-48341961D02*
X101123809Y-48437200D01*
X101123809Y-48437200D02*
X100980952Y-48484819D01*
X100980952Y-48484819D02*
X100885714Y-48484819D01*
X102266666Y-48484819D02*
X101695238Y-48484819D01*
X101980952Y-48484819D02*
X101980952Y-47484819D01*
X101980952Y-47484819D02*
X101885714Y-47627676D01*
X101885714Y-47627676D02*
X101790476Y-47722914D01*
X101790476Y-47722914D02*
X101695238Y-47770533D01*
X95758095Y-51254819D02*
X95758095Y-50254819D01*
X95758095Y-50731009D02*
X96329523Y-50731009D01*
X96329523Y-51254819D02*
X96329523Y-50254819D01*
X97329523Y-51254819D02*
X96758095Y-51254819D01*
X97043809Y-51254819D02*
X97043809Y-50254819D01*
X97043809Y-50254819D02*
X96948571Y-50397676D01*
X96948571Y-50397676D02*
X96853333Y-50492914D01*
X96853333Y-50492914D02*
X96758095Y-50540533D01*
X116524819Y-91773333D02*
X117239104Y-91773333D01*
X117239104Y-91773333D02*
X117381961Y-91820952D01*
X117381961Y-91820952D02*
X117477200Y-91916190D01*
X117477200Y-91916190D02*
X117524819Y-92059047D01*
X117524819Y-92059047D02*
X117524819Y-92154285D01*
X116524819Y-90868571D02*
X116524819Y-91059047D01*
X116524819Y-91059047D02*
X116572438Y-91154285D01*
X116572438Y-91154285D02*
X116620057Y-91201904D01*
X116620057Y-91201904D02*
X116762914Y-91297142D01*
X116762914Y-91297142D02*
X116953390Y-91344761D01*
X116953390Y-91344761D02*
X117334342Y-91344761D01*
X117334342Y-91344761D02*
X117429580Y-91297142D01*
X117429580Y-91297142D02*
X117477200Y-91249523D01*
X117477200Y-91249523D02*
X117524819Y-91154285D01*
X117524819Y-91154285D02*
X117524819Y-90963809D01*
X117524819Y-90963809D02*
X117477200Y-90868571D01*
X117477200Y-90868571D02*
X117429580Y-90820952D01*
X117429580Y-90820952D02*
X117334342Y-90773333D01*
X117334342Y-90773333D02*
X117096247Y-90773333D01*
X117096247Y-90773333D02*
X117001009Y-90820952D01*
X117001009Y-90820952D02*
X116953390Y-90868571D01*
X116953390Y-90868571D02*
X116905771Y-90963809D01*
X116905771Y-90963809D02*
X116905771Y-91154285D01*
X116905771Y-91154285D02*
X116953390Y-91249523D01*
X116953390Y-91249523D02*
X117001009Y-91297142D01*
X117001009Y-91297142D02*
X117096247Y-91344761D01*
X116524819Y-86693333D02*
X117239104Y-86693333D01*
X117239104Y-86693333D02*
X117381961Y-86740952D01*
X117381961Y-86740952D02*
X117477200Y-86836190D01*
X117477200Y-86836190D02*
X117524819Y-86979047D01*
X117524819Y-86979047D02*
X117524819Y-87074285D01*
X116524819Y-86312380D02*
X116524819Y-85645714D01*
X116524819Y-85645714D02*
X117524819Y-86074285D01*
%TO.C,J5*%
D11*
X97730000Y-77410000D02*
X97730000Y-80070000D01*
X118110000Y-77410000D02*
X97730000Y-77410000D01*
X118110000Y-77410000D02*
X118110000Y-80070000D01*
X118110000Y-80070000D02*
X97730000Y-80070000D01*
X120710000Y-78740000D02*
X120710000Y-80070000D01*
X120710000Y-80070000D02*
X119380000Y-80070000D01*
%TO.C,J2*%
X115510000Y-52070000D02*
X115510000Y-72450000D01*
X115510000Y-52070000D02*
X118170000Y-52070000D01*
X115510000Y-72450000D02*
X118170000Y-72450000D01*
X116840000Y-49470000D02*
X118170000Y-49470000D01*
X118170000Y-49470000D02*
X118170000Y-50800000D01*
X118170000Y-52070000D02*
X118170000Y-72450000D01*
%TO.C,J8*%
X104080000Y-44390000D02*
X105410000Y-44390000D01*
X104080000Y-45720000D02*
X104080000Y-44390000D01*
X106680000Y-44390000D02*
X114360000Y-44390000D01*
X106680000Y-47050000D02*
X106680000Y-44390000D01*
X106680000Y-47050000D02*
X114360000Y-47050000D01*
X114360000Y-47050000D02*
X114360000Y-44390000D01*
%TO.C,J1*%
X100270000Y-52070000D02*
X100270000Y-72450000D01*
X100270000Y-52070000D02*
X102930000Y-52070000D01*
X100270000Y-72450000D02*
X102930000Y-72450000D01*
X101600000Y-49470000D02*
X102930000Y-49470000D01*
X102930000Y-49470000D02*
X102930000Y-50800000D01*
X102930000Y-52070000D02*
X102930000Y-72450000D01*
%TO.C,J6*%
X102810000Y-90110000D02*
X102810000Y-92770000D01*
X113030000Y-90110000D02*
X102810000Y-90110000D01*
X113030000Y-90110000D02*
X113030000Y-92770000D01*
X113030000Y-92770000D02*
X102810000Y-92770000D01*
X115630000Y-91440000D02*
X115630000Y-92770000D01*
X115630000Y-92770000D02*
X114300000Y-92770000D01*
%TO.C,J7*%
X102810000Y-85030000D02*
X102810000Y-87690000D01*
X113030000Y-85030000D02*
X102810000Y-85030000D01*
X113030000Y-85030000D02*
X113030000Y-87690000D01*
X113030000Y-87690000D02*
X102810000Y-87690000D01*
X115630000Y-86360000D02*
X115630000Y-87690000D01*
X115630000Y-87690000D02*
X114300000Y-87690000D01*
%TD*%
M02*
