%TF.GenerationSoftware,KiCad,Pcbnew,10.0.5*%
%TF.CreationDate,2026-08-04T11:50:24-06:00*%
%TF.ProjectId,Drone_Pet_Carrier,44726f6e-655f-4506-9574-5f4361727269,rev?*%
%TF.SameCoordinates,Original*%
%TF.FileFunction,Soldermask,Top*%
%TF.FilePolarity,Negative*%
%FSLAX46Y46*%
G04 Gerber Fmt 4.6, Leading zero omitted, Abs format (unit mm)*
G04 Created by KiCad (PCBNEW 10.0.5) date 2026-08-04 11:50:24*
%MOMM*%
%LPD*%
G01*
G04 APERTURE LIST*
%ADD10C,2.000000*%
%ADD11R,1.700000X1.700000*%
%ADD12C,1.700000*%
%ADD13C,3.200000*%
G04 APERTURE END LIST*
D10*
%TO.C,J3*%
X110490000Y-50800000D03*
X113030000Y-50800000D03*
%TD*%
D11*
%TO.C,J5*%
X119380000Y-78740000D03*
D12*
X116840000Y-78740000D03*
X114300000Y-78740000D03*
X111760000Y-78740000D03*
X109220000Y-78740000D03*
X106680000Y-78740000D03*
X104140000Y-78740000D03*
X101600000Y-78740000D03*
X99060000Y-78740000D03*
%TD*%
D11*
%TO.C,J2*%
X116840000Y-50800000D03*
D12*
X116840000Y-53340000D03*
X116840000Y-55880000D03*
X116840000Y-58420000D03*
X116840000Y-60960000D03*
X116840000Y-63500000D03*
X116840000Y-66040000D03*
X116840000Y-68580000D03*
X116840000Y-71120000D03*
%TD*%
D11*
%TO.C,J8*%
X105410000Y-45720000D03*
D12*
X107950000Y-45720000D03*
X110490000Y-45720000D03*
X113030000Y-45720000D03*
%TD*%
D13*
%TO.C,H2*%
X121920000Y-45720000D03*
%TD*%
%TO.C,H4*%
X121920000Y-91440000D03*
%TD*%
%TO.C,H3*%
X96520000Y-91440000D03*
%TD*%
D11*
%TO.C,J1*%
X101600000Y-50800000D03*
D12*
X101600000Y-53340000D03*
X101600000Y-55880000D03*
X101600000Y-58420000D03*
X101600000Y-60960000D03*
X101600000Y-63500000D03*
X101600000Y-66040000D03*
X101600000Y-68580000D03*
X101600000Y-71120000D03*
%TD*%
D13*
%TO.C,H1*%
X96520000Y-45720000D03*
%TD*%
D11*
%TO.C,J6*%
X114300000Y-91440000D03*
D12*
X111760000Y-91440000D03*
X109220000Y-91440000D03*
X106680000Y-91440000D03*
X104140000Y-91440000D03*
%TD*%
D11*
%TO.C,J7*%
X114300000Y-86360000D03*
D12*
X111760000Y-86360000D03*
X109220000Y-86360000D03*
X106680000Y-86360000D03*
X104140000Y-86360000D03*
%TD*%
M02*
