M48
; DRILL file KiCad 10.0.5 date 2026-08-04T11:50:43
; FORMAT={-:-/ absolute / metric / decimal}
; #@! TF.CreationDate,2026-08-04T11:50:43-06:00
; #@! TF.GenerationSoftware,Kicad,Pcbnew,10.0.5
; #@! TF.FileFunction,Plated,1,2,PTH
FMAT,2
METRIC
; #@! TA.AperFunction,Plated,PTH,ComponentDrill
T1C1.000
%
G90
G05
T1
X99.06Y-78.74
X101.6Y-50.8
X101.6Y-53.34
X101.6Y-55.88
X101.6Y-58.42
X101.6Y-60.96
X101.6Y-63.5
X101.6Y-66.04
X101.6Y-68.58
X101.6Y-71.12
X101.6Y-78.74
X104.14Y-78.74
X104.14Y-86.36
X104.14Y-91.44
X105.41Y-45.72
X106.68Y-78.74
X106.68Y-86.36
X106.68Y-91.44
X107.95Y-45.72
X109.22Y-78.74
X109.22Y-86.36
X109.22Y-91.44
X110.49Y-45.72
X110.49Y-50.8
X111.76Y-78.74
X111.76Y-86.36
X111.76Y-91.44
X113.03Y-45.72
X113.03Y-50.8
X114.3Y-78.74
X114.3Y-86.36
X114.3Y-91.44
X116.84Y-50.8
X116.84Y-53.34
X116.84Y-55.88
X116.84Y-58.42
X116.84Y-60.96
X116.84Y-63.5
X116.84Y-66.04
X116.84Y-68.58
X116.84Y-71.12
X116.84Y-78.74
X119.38Y-78.74
M30
